<?xml version="1.0" encoding="UTF-8"?>
<svg width="50px" height="50px" viewBox="0 0 50 50" version="1.1" xmlns="http://www.w3.org/2000/svg" xmlns:xlink="http://www.w3.org/1999/xlink">
    <title>arrow-circle-down-solid</title>
    <defs>
        <filter color-interpolation-filters="auto" id="filter-1">
            <feColorMatrix in="SourceGraphic" type="matrix" values="0 0 0 0 1.000000 0 0 0 0 1.000000 0 0 0 0 1.000000 0 0 0 1.000000 0"></feColorMatrix>
        </filter>
    </defs>
    <g id="ConSysTec" stroke="none" stroke-width="1" fill="none" fill-rule="evenodd" opacity="0.5">
        <g id="arrow-circle-down-solid" transform="translate(-695.000000, -647.000000)" filter="url(#filter-1)">
            <g transform="translate(695.000000, 647.000000)">
                <path d="M50,25 C50,38.8104839 38.8104839,50 25,50 C11.1895161,50 0,38.8104839 0,25 C0,11.1895161 11.1895161,0 25,0 C38.8104839,0 50,11.1895161 50,25 Z M35.5241935,22.0866935 L28.2258065,29.6975806 L28.2258065,11.2903226 C28.2258065,9.94959677 27.1471774,8.87096774 25.8064516,8.87096774 L24.1935484,8.87096774 C22.8528226,8.87096774 21.7741935,9.94959677 21.7741935,11.2903226 L21.7741935,29.6975806 L14.4758065,22.0866935 C13.5383065,21.108871 11.9758065,21.0887097 11.0181452,22.046371 L9.91935484,23.1552419 C8.97177419,24.1028226 8.97177419,25.6350806 9.91935484,26.5725806 L23.2862903,39.9495968 C24.233871,40.8971774 25.766129,40.8971774 26.703629,39.9495968 L40.0806452,26.5725806 C41.0282258,25.625 41.0282258,24.0927419 40.0806452,23.1552419 L38.9818548,22.046371 C38.0241935,21.0887097 36.4616935,21.108871 35.5241935,22.0866935 Z" id="Shape" fill="#000000" fill-rule="nonzero"></path>
            </g>
        </g>
    </g>
</svg>