<?xml version="1.0" encoding="UTF-8"?>
<svg width="32px" height="32px" viewBox="0 0 32 32" version="1.1" xmlns="http://www.w3.org/2000/svg" xmlns:xlink="http://www.w3.org/1999/xlink">
    <title>facebook-brands</title>
    <g id="ConSysTec" stroke="none" stroke-width="1" fill="none" fill-rule="evenodd">
        <g id="facebook-brands">
            <circle id="Oval" fill="#FFFFFF" cx="16" cy="16" r="16"></circle>
            <path d="M32,16.0973631 C32,7.20486815 24.8387097,0 16,0 C7.16129032,0 0,7.20486815 0,16.0973631 C0,24.1317647 5.85096774,30.7913996 13.5,32 L13.5,20.7506694 L9.43548387,20.7506694 L9.43548387,16.0973631 L13.5,16.0973631 L13.5,12.5507505 C13.5,8.51667343 15.8870968,6.288357 19.5432258,6.288357 C21.2941935,6.288357 23.1251613,6.60251521 23.1251613,6.60251521 L23.1251613,10.5619473 L21.1070968,10.5619473 C19.12,10.5619473 18.5,11.803002 18.5,13.0758621 L18.5,16.0973631 L22.9374194,16.0973631 L22.2277419,20.7506694 L18.5,20.7506694 L18.5,32 C26.1490323,30.7913996 32,24.1317647 32,16.0973631 Z" id="Path" fill="#3B5998" fill-rule="nonzero"></path>
        </g>
    </g>
</svg>