<?xml version="1.0" encoding="UTF-8"?>
<svg width="32px" height="32px" viewBox="0 0 32 32" version="1.1" xmlns="http://www.w3.org/2000/svg" xmlns:xlink="http://www.w3.org/1999/xlink">
    <title>linkedin-in-brands</title>
    <g id="ConSysTec" stroke="none" stroke-width="1" fill="none" fill-rule="evenodd">
        <g id="linkedin-in-brands" fill="#2867B2" fill-rule="nonzero">
            <path d="M7.16285714,31.9992857 L0.528571429,31.9992857 L0.528571429,10.6349999 L7.16285714,10.6349999 L7.16285714,31.9992857 Z M3.84214286,7.72071423 C1.72071429,7.72071423 0,5.96357137 0,3.8421428 C0,1.72018592 1.72018597,0 3.84214286,0 C5.96409974,0 7.68428571,1.72018592 7.68428571,3.8421428 C7.68428571,5.96357137 5.96285714,7.72071423 3.84214286,7.72071423 Z M31.9928571,31.9992857 L25.3728571,31.9992857 L25.3728571,21.5992857 C25.3728571,19.1207142 25.3228571,15.9421428 21.9235714,15.9421428 C18.4742857,15.9421428 17.9457143,18.6349999 17.9457143,21.4207142 L17.9457143,31.9992857 L11.3185714,31.9992857 L11.3185714,10.6349999 L17.6814286,10.6349999 L17.6814286,13.5492857 L17.7742857,13.5492857 C18.66,11.8707142 20.8235714,10.0992857 24.0514286,10.0992857 C30.7657143,10.0992857 32,14.5207142 32,20.2635714 L32,31.9992857 L31.9928571,31.9992857 Z" id="Shape"></path>
        </g>
    </g>
</svg>