<?xml version="1.0" encoding="UTF-8"?>
<svg width="32px" height="26px" viewBox="0 0 32 26" version="1.1" xmlns="http://www.w3.org/2000/svg" xmlns:xlink="http://www.w3.org/1999/xlink">
    <title>twitter-brands</title>
    <g id="ConSysTec" stroke="none" stroke-width="1" fill="none" fill-rule="evenodd">
        <g id="twitter-brands" transform="translate(0.000000, -0.000000)" fill="#1DA1F2" fill-rule="nonzero">
            <path d="M28.7107372,6.4771503 C28.7310497,6.76140141 28.7310497,7.04571502 28.7310497,7.32996613 C28.7310497,16 22.1320865,25.989914 10.0711018,25.989914 C6.35533733,25.989914 2.90357384,24.9137223 0,23.0457775 C0.527939562,23.1066528 1.03550404,23.1269653 1.58375619,23.1269653 C4.64970566,23.1269653 7.47209169,22.0914613 9.72591299,20.3249544 C6.84265173,20.2640167 4.42639229,18.3756968 3.59388904,15.7766866 C4.00001563,15.8375619 4.40607971,15.878187 4.83251888,15.878187 C5.42133368,15.878187 6.01021098,15.7969367 6.55840062,15.6548737 C3.55332638,15.0456838 1.29944258,12.406111 1.29944258,9.21828601 L1.29944258,9.13709819 C2.17250849,9.6244126 3.18782495,9.92897629 4.26389166,9.96953894 C2.49738476,8.79184684 1.34006773,6.78171399 1.34006773,4.50758011 C1.34006773,3.28932535 1.6648815,2.17257099 2.23344622,1.19794218 C5.46189634,5.17764523 10.3147278,7.77659288 15.7563115,8.06090649 C15.6548112,7.57359208 15.5938734,7.0660276 15.5938734,6.55840062 C15.5938734,2.9441365 18.5177598,0 22.152274,0 C24.0405939,0 25.7461631,0.791878093 26.9441678,2.07107059 C28.426361,1.78681948 29.8476791,1.23856734 31.1066215,0.487314404 C30.6192446,2.01019535 29.5837406,3.28938785 28.2233602,4.10151602 C29.5431779,3.95945297 30.8223704,3.59388904 32,3.08632456 C31.1067465,4.38576713 29.9899296,5.54308415 28.7107372,6.4771503 Z" id="Path"></path>
        </g>
    </g>
</svg>